<svg width="362" height="362" viewBox="0 0 362 362" fill="none" xmlns="http://www.w3.org/2000/svg">
<rect width="362" height="362" fill="#171717"/>
<path d="M82.7553 177.232C82.7553 177.602 82.7553 178.71 80.3532 178.71H67.2782V173.433H80.3259C82.728 173.433 82.728 174.541 82.728 174.91V177.232H82.7553ZM67.2782 183.222H80.3259C81.4723 183.222 81.991 183.38 82.2366 183.512C82.6734 183.776 82.8918 184.33 82.8918 185.121V186.942C82.8918 187.76 82.6734 188.288 82.2366 188.551C81.8818 188.736 81.254 188.842 80.3259 188.842H67.2782V183.222ZM85.403 181.005C87.5595 180.425 88.6513 179.053 88.6513 176.916V173.96C88.6513 170.662 86.6587 169 82.7553 169H61V193.749H81.1994C86.2765 193.749 88.8424 192.061 88.8424 188.762V185.649C88.8697 183.222 87.6959 181.638 85.403 181.005Z" fill="white"/>
<path d="M114.392 183.565H104.292L109.424 174.488L114.392 183.565ZM112.618 169H106.667L92.1726 193.749H98.6146L101.535 188.446H117.122L120.124 193.749H127.303L112.7 169.132L112.618 169Z" fill="white"/>
<path d="M155.5 181.981C155.5 182.456 155.555 183.644 155.691 185.464C155.064 184.857 154.272 184.145 153.317 183.354L135.683 169.053L135.601 169H131.261V193.749H137.048V180.372C137.048 179.528 136.993 178.499 136.884 177.259C137.375 177.76 137.894 178.235 138.467 178.683L156.892 193.67L156.974 193.723H161.314V169H155.528V181.981H155.5Z" fill="white"/>
<path d="M193.688 188.683H174.963V173.828H193.688V188.683ZM193.579 169H175.099C172.615 169 170.95 169.396 170.022 170.24C169.094 171.084 168.63 172.641 168.63 174.989V187.76C168.63 190.108 169.094 191.665 170.022 192.509C170.95 193.353 172.615 193.749 175.099 193.749H193.579C196.063 193.749 197.728 193.353 198.656 192.509C199.584 191.665 200.048 190.108 200.048 187.76V174.989C200.048 172.641 199.584 171.084 198.656 170.24C197.728 169.396 196.063 169 193.579 169Z" fill="white"/>
<path d="M213.833 173.644H226.69C227.754 173.644 228.245 173.776 228.464 173.881C228.873 174.119 229.064 174.594 229.064 175.306V178.235C229.064 178.974 228.873 179.449 228.464 179.66C228.245 179.765 227.754 179.923 226.69 179.923H213.833V173.644ZM229.31 184.594C233.241 184.594 235.206 182.931 235.206 179.633V173.96C235.206 170.662 233.213 169 229.31 169H207.555V193.749H213.806V184.594H218.965L229.01 193.696L229.092 193.776H238.291L226.717 184.62H229.31V184.594Z" fill="white"/>
<path d="M240.065 173.828H251.584V193.749H257.944V173.828H269.49V169H240.065V173.828Z" fill="white"/>
<path d="M280.873 188.683V183.169H292.774V178.525H280.873V173.644H300.253V169H274.513V193.749H300.499V188.683H280.873Z" fill="white"/>
</svg>
