<?xml version="1.0" encoding="utf-8"?>
<!-- Generator: Adobe Illustrator 25.3.0, SVG Export Plug-In . SVG Version: 6.00 Build 0)  -->
<svg version="1.1" id="Layer_1" xmlns="http://www.w3.org/2000/svg" xmlns:xlink="http://www.w3.org/1999/xlink" x="0px" y="0px"
	 viewBox="0 0 360 360" style="enable-background:new 0 0 360 360;" xml:space="preserve">
<style type="text/css">
	.st0{fill:#171717;stroke:#000000;stroke-miterlimit:10;}
	.st1{fill:none;}
	.st2{fill:#F6F6F6;}
</style>
<rect x="-0.5" y="-0.5" class="st0" width="360" height="360"/>
<g>
	<path class="st1" d="M248.63,185.55c-0.45,0-0.9,0.06-1.35,0.14c0.45-0.06,0.91-0.1,1.37-0.14
		C248.65,185.55,248.64,185.55,248.63,185.55z"/>
	<g>
		<path class="st2" d="M163.56,171.33c-2.21-2.37-3.31-6.3-3.31-11.8c0-4.37,0.74-9.07,2.22-14.11c1.48-5.03,3.85-9.35,7.12-12.95
			c3.27-3.6,7.42-5.4,12.45-5.4c3.12,0,5.64,0.69,7.55,2.06c1.91,1.37,2.87,3.47,2.87,6.3c0,1.79-0.35,3.19-1.06,4.21
			c-0.71,1.02-1.81,1.53-3.31,1.53s-2.68-0.54-3.56-1.62c0.75-0.37,1.41-1.12,2-2.25c0.58-1.12,0.87-2.29,0.87-3.5
			c0-1.12-0.3-2.04-0.91-2.75c-0.6-0.71-1.57-1.06-2.9-1.06c-2.21,0-4.31,1.51-6.3,4.52c-2,3.02-3.61,6.81-4.84,11.39
			c-1.23,4.58-1.84,8.99-1.84,13.23c0,3.16,0.54,5.58,1.62,7.24c1.08,1.66,3.04,2.5,5.87,2.5c2.45,0,4.72-0.54,6.8-1.62
			c2.08-1.08,3.87-2.62,5.37-4.62l1.44,0.62c-1.04,2.62-2.58,4.81-4.62,6.55c-2.04,1.75-4.22,3.03-6.55,3.84
			c-2.33,0.81-4.54,1.22-6.62,1.22C169.22,174.88,165.77,173.7,163.56,171.33z"/>
		<path class="st2" d="M207.03,172.23c-1.19-1.35-1.78-3.03-1.78-5.02c0-0.87,0.1-1.86,0.31-2.96c0.21-1.1,0.43-2.17,0.66-3.21
			c0.23-1.04,0.38-1.71,0.47-2c0.33-1.46,0.64-2.89,0.94-4.31c0.29-1.41,0.44-2.56,0.44-3.43c0-2.12-0.75-3.18-2.25-3.18
			c-1.08,0-2.04,0.53-2.87,1.59c-0.83,1.06-1.5,2.44-2,4.15l-4.24,20.03h-8.99l9.05-42.44l9.24-1.25l-3.37,15.73
			c2.08-2.33,4.51-3.5,7.3-3.5c2.12,0,3.81,0.58,5.06,1.75c1.25,1.17,1.87,2.93,1.87,5.31c0,1.21-0.15,2.55-0.44,4.03
			c-0.29,1.48-0.71,3.28-1.25,5.4c-0.33,1.29-0.63,2.55-0.9,3.78c-0.27,1.23-0.41,2.2-0.41,2.9c0,0.83,0.19,1.48,0.56,1.93
			c0.37,0.46,1.02,0.69,1.93,0.69c1.25,0,2.25-0.45,3-1.34c0.75-0.89,1.5-2.28,2.25-4.15h2.62c-1.54,4.58-3.32,7.65-5.34,9.21
			c-2.02,1.56-4.11,2.34-6.27,2.34C210.08,174.26,208.22,173.58,207.03,172.23z"/>
		<path class="st2" d="M222.95,172.39c-1.23-1.25-1.84-3.12-1.84-5.62c0-1.04,0.17-2.39,0.5-4.06l4.24-20.03h8.99l-4.49,21.22
			c-0.17,0.62-0.25,1.29-0.25,2c0,0.83,0.2,1.43,0.59,1.78c0.39,0.35,1.05,0.53,1.97,0.53c1.21,0,2.33-0.51,3.37-1.53
			c1.04-1.02,1.79-2.34,2.25-3.96h2.62c-1.54,4.49-3.52,7.54-5.93,9.14c-2.41,1.6-4.81,2.4-7.18,2.4
			C225.79,174.26,224.17,173.64,222.95,172.39z M228.53,137.87c-0.96-0.96-1.44-2.12-1.44-3.5c0-1.37,0.48-2.55,1.44-3.53
			c0.96-0.98,2.12-1.47,3.5-1.47s2.55,0.49,3.53,1.47c0.98,0.98,1.47,2.15,1.47,3.53c0,1.37-0.49,2.54-1.47,3.5
			c-0.98,0.96-2.15,1.44-3.53,1.44S229.49,138.83,228.53,137.87z"/>
		<path class="st2" d="M239.61,172.39c-1.23-1.25-1.84-3.12-1.84-5.62c0-1.04,0.17-2.39,0.5-4.06l6.68-31.27l9.24-1.25l-7.18,33.7
			c-0.17,0.62-0.25,1.29-0.25,2c0,0.83,0.2,1.43,0.59,1.78c0.39,0.35,1.05,0.53,1.97,0.53c1.21,0,2.33-0.51,3.37-1.53
			c1.04-1.02,1.79-2.34,2.25-3.96h2.62c-1.54,4.49-3.52,7.54-5.93,9.14c-2.41,1.6-4.81,2.4-7.18,2.4
			C242.45,174.26,240.84,173.64,239.61,172.39z"/>
		<path class="st2" d="M256.15,172.36c-1.23-1.27-1.84-3.17-1.84-5.71c0-1.04,0.17-2.39,0.5-4.06l6.68-31.27l9.24-1.25l-7.18,33.7
			c-0.17,0.62-0.25,1.23-0.25,1.81c0,1.66,0.85,2.5,2.56,2.5c0.75,0,1.41-0.12,2-0.37c-0.17,2.08-0.91,3.69-2.22,4.84
			c-1.31,1.14-2.86,1.72-4.65,1.72C258.99,174.26,257.38,173.63,256.15,172.36z"/>
	</g>
	<path class="st2" d="M145.53,135.74c-3.19-2.65-5.77-1.8-9.55-3.51c-3.78-1.7-4.6-4.74-8.43-5.17c-3.83-0.43-3.75,1.33-9.3,2.38
		s-8-2.4-12.61-0.08c-4.61,2.32-3.04,5.64-6.18,9.17s-6.83,2.24-8.9,6.82c-2.07,4.58,0.98,7.02,0.74,12.36
		c-0.24,5.34-2.78,4.68-2.17,9.82s6.24,7.29,6.24,7.29l0.06-0.03c-7.08-14.24-1.95-31.77,12-39.86c14.08-8.16,32.06-3.73,40.8,9.79
		l0.03-0.02C148.26,144.7,148.72,138.39,145.53,135.74z"/>
	<path class="st2" d="M124.62,155.23c2.87,0,5.5,1.27,7.28,3.44c-5.05,3.22-10.77,6.54-16.04,9.32c-1.61-4.23,0.05-9.17,4.06-11.5
		C121.35,155.66,122.97,155.23,124.62,155.23 M124.62,153.9c-1.82,0-3.67,0.47-5.36,1.45c-5.06,2.93-6.82,9.36-4.01,14.46
		c6.08-3.15,12.78-7.05,18.53-10.77C131.76,155.74,128.24,153.9,124.62,153.9L124.62,153.9z"/>
	<path class="st2" d="M143.26,151.95c-0.43-1.7-2.04-6.32-4.21-7.23c-0.6-0.25-1.21-0.19-1.87,0.19c-2.46,1.43-4.17,0.07-5.67-1.13
		c-1.74-1.38-3.23-2.57-6.11-0.91c-3.45,2-5.77,1.56-7.81,1.17c-1.68-0.32-3.14-0.6-5.11,0.54c-1.97,1.14-2.31,2.47-2.71,4.02
		c-0.48,1.87-1.03,3.99-4.36,5.92c-2.64,1.53-2.36,3.49-2.05,5.75c0.31,2.18,0.66,4.66-2.21,6.32c-0.9,0.52-1.37,1.16-1.44,1.95
		c-0.18,2.22,2.82,5.21,4,6.18c0.1,0.08,0.15,0.18,0.19,0.29c3.09-1.15,7.06-2.99,11.33-5.21c-2.81-5.1-1.05-11.53,4.01-14.46
		c5.05-2.93,11.49-1.27,14.52,3.68c3.77-2.44,7.13-4.8,9.62-6.82C143.33,152.13,143.29,152.05,143.26,151.95z M107.63,167.1
		c-1.35,0-2.44-1.09-2.45-2.44c0-1.35,1.09-2.44,2.44-2.45c1.35,0,5.25,1.08,5.25,2.43C112.88,166,108.98,167.1,107.63,167.1z
		 M115.61,157.09c-0.87,1.03-4.56-0.63-5.59-1.49c-1.03-0.87-1.17-2.41-0.31-3.44c0.87-1.03,2.41-1.17,3.44-0.31
		C114.19,152.71,116.48,156.05,115.61,157.09z M122.57,153.06c-1.33,0.24-3.09-3.41-3.32-4.74c-0.24-1.33,0.65-2.6,1.98-2.83
		c1.33-0.24,2.6,0.65,2.83,1.98C124.29,148.79,123.9,152.82,122.57,153.06z M135.23,151.11c-0.67,1.17-3.56,4-4.73,3.33
		c-1.17-0.67-0.17-4.6,0.5-5.77c0.67-1.17,2.17-1.57,3.33-0.9C135.5,148.45,135.9,149.94,135.23,151.11z"/>
	<path class="st2" d="M147.78,146.72c-8.03-13.86-25.78-18.58-39.64-10.55c-13.86,8.03-18.58,25.78-10.55,39.64
		c0.45,0.78,2.28,0.57,4.98-0.32c-1.05-0.93-4.41-4.14-4.17-7.04c0.1-1.24,0.81-2.24,2.09-2.99c2.09-1.21,1.86-2.88,1.56-4.99
		c-0.32-2.28-0.72-5.11,2.69-7.08c2.85-1.65,3.28-3.33,3.74-5.1c0.43-1.68,0.88-3.41,3.33-4.83c2.4-1.39,4.24-1.04,6.02-0.7
		c1.9,0.36,3.87,0.74,6.9-1.01c3.66-2.12,5.85-0.38,7.6,1.02c1.6,1.27,2.58,1.95,4.19,1.02c1.02-0.59,2.05-0.68,3.05-0.26
		c2.87,1.21,4.51,6.48,4.89,7.81C146.93,149.19,148.25,147.53,147.78,146.72z M99.68,155.82c-0.68,0.39-1.55,0.16-1.95-0.52
		c-0.39-0.68-0.16-1.55,0.52-1.95c0.68-0.39,1.55-0.16,1.95,0.52C100.6,154.56,100.37,155.43,99.68,155.82z M106.67,144.97
		c-0.68,0.39-1.55,0.16-1.95-0.52c-0.39-0.68-0.16-1.55,0.52-1.95c0.68-0.39,1.55-0.16,1.95,0.52S107.35,144.58,106.67,144.97z
		 M116.51,139.27c-0.68,0.39-1.55,0.16-1.95-0.52c-0.39-0.68-0.16-1.55,0.52-1.95c0.68-0.39,1.55-0.16,1.95,0.52
		C117.43,138,117.19,138.87,116.51,139.27z M128.75,138.98c-0.68,0.39-1.55,0.16-1.95-0.52c-0.39-0.68-0.16-1.55,0.52-1.95
		c0.68-0.39,1.55-0.16,1.95,0.52C129.66,137.72,129.43,138.59,128.75,138.98z"/>
	<path class="st2" d="M90.45,156.59"/>
	<path class="st2" d="M161.21,228.96c-0.62-0.66-0.99-1.72-1.13-3.18l-2.65-41.65c-0.97,0.09-1.79,0.13-2.45,0.13
		c-0.62,0-1.46-0.04-2.52-0.13l-27.02,38.01c-1.99,2.78-3.52,4.7-4.6,5.76c-1.05,1.03-2.17,1.72-3.37,2.08
		c-1.73-0.15-2.97-0.46-3.72-0.92c-0.82-0.51-1.23-1.33-1.23-2.48c0-0.88,0.15-1.85,0.46-2.91l9.6-36.35
		c0.44,0.04,1.08,0.07,1.92,0.07c4.72,0,8.54-0.6,11.46-1.79c3.71-1.59,5.56-4,5.56-7.22c0-1.54-0.61-2.88-1.82-4.01
		c-1.21-1.13-2.77-1.69-4.67-1.69c-1.94,0-3.52,0.61-4.73,1.82c-1.21,1.21-1.82,2.81-1.82,4.8c0,1.32,0.25,2.52,0.76,3.58
		c0.51,1.06,1.14,1.94,1.89,2.65c-1.63,0.35-3.62,0.53-5.96,0.53c-1.9,0-5.36-0.18-10.4-0.53c-5.65-0.44-10.04-0.66-13.18-0.66
		c-3.75,0-6.71,0.53-8.87,1.59c-1.72,0.84-2.96,1.92-3.71,3.24c-0.75,1.32-1.13,2.69-1.13,4.11c0,1.77,0.53,3.28,1.59,4.54
		c1.06,1.26,2.52,1.89,4.37,1.89c1.81,0,3.33-0.63,4.57-1.89c1.24-1.26,1.85-2.84,1.85-4.73c0-1.77-0.55-3.22-1.66-4.37
		c-1.1-1.15-2.52-1.83-4.24-2.05c1.54-0.75,4.06-1.13,7.55-1.13c1.94,0,4.46,0.11,7.55,0.33l-5.11,19.13
		c-3.14,3.02-6.4,2.82-6.4,2.82s2.85,1.58,4.17,5.59l-2.59,9.74c-0.44,1.68-0.96,2.95-1.56,3.81c-0.6,0.86-1.41,1.48-2.45,1.85
		c-1.04,0.38-2.51,0.61-4.4,0.7l-0.27,1.32c2.78-0.13,7.11-0.2,12.98-0.2c5.77,0,10.17,0.06,13.25,0.18l0.6-0.02
		c1.19-0.1,2.42-0.16,3.7-0.16c1.72,0,4.86,0.07,9.4,0.2l0.26-1.32c-4.06-0.31-6.09-1.5-6.09-3.58c0-1.01,0.53-2.27,1.59-3.77
		l6.42-9.07h12.98l0.6,10.86c0.09,1.5-0.04,2.64-0.4,3.41c-0.35,0.77-0.95,1.3-1.79,1.59c-0.84,0.29-2.01,0.47-3.51,0.56l-0.26,1.32
		c2.38-0.13,6.14-0.2,11.26-0.2c4.9,0,8.63,0.07,11.19,0.2l0.27-1.32C162.53,229.98,161.83,229.62,161.21,228.96z M133.92,212.27
		l11.19-15.76l0.79,15.76H133.92z"/>
	<path class="st2" d="M217.23,184.46c-0.93,2.65-1.83,3.97-2.72,3.97c-0.26,0-0.57-0.2-0.93-0.6c-1.15-1.32-2.46-2.37-3.94-3.15
		c-1.48-0.77-3.43-1.16-5.86-1.16c-6.27,0-11.98,1.52-17.12,4.57c-5.14,3.05-9.17,7.02-12.09,11.92c-2.91,4.9-4.37,10-4.37,15.3
		c0,5.47,1.58,9.67,4.73,12.58c3.16,2.91,8.02,4.37,14.6,4.37c4.72,0,9.14-1.43,13.24-4.3c0.53-0.4,0.97-0.6,1.32-0.6
		c0.57,0,0.86,0.57,0.86,1.72c0,0.57-0.07,1.32-0.2,2.25h1.46c0.53-2.96,1.83-8.25,3.91-15.89h-1.46c-1.1,2.65-2.09,4.73-2.95,6.26
		c-0.86,1.52-1.87,2.92-3.01,4.2c-1.15,1.19-2.49,2.13-4.04,2.81c-1.55,0.68-3.07,1.03-4.57,1.03c-2.74,0-4.87-1.08-6.39-3.24
		c-1.52-2.16-2.28-5.47-2.28-9.93c0-5.43,0.9-10.55,2.71-15.36c1.81-4.81,4.24-8.65,7.28-11.52c3.05-2.87,6.29-4.3,9.73-4.3
		c1.72,0,3.16,0.28,4.3,0.83c1.15,0.55,2.14,1.53,2.98,2.95c0.75,1.24,1.13,2.85,1.13,4.83c0,1.46-0.22,3.36-0.66,5.7h1.46
		c1.37-6.36,2.78-11.43,4.24-15.23H217.23z"/>
	<g>
		<path class="st2" d="M239.67,233c0.46,0,0.92-0.06,1.38-0.15c-0.46,0.06-0.93,0.11-1.4,0.15C239.65,233,239.66,233,239.67,233z"/>
		<path class="st2" d="M267.36,205.78c0.48-2.11,0.73-4.2,0.73-6.29c0-5.08-1.73-9.01-5.2-11.79c-3.47-2.78-8.27-4.17-14.4-4.17
			c-6.05,0-11.48,1.67-16.29,5c-4.81,3.33-8.57,7.56-11.26,12.68c-2.69,5.12-4.04,10.18-4.04,15.16c0,5.03,1.72,8.94,5.16,11.72
			c3.44,2.78,8.23,4.17,14.37,4.17c6,0,11.42-1.67,16.26-5c4.83-3.33,8.61-7.55,11.32-12.65c0.16-0.29,0.29-0.59,0.44-0.88
			c3.98-2.64,7.65-4.01,7.65-4.01S269.27,208.96,267.36,205.78z M260.56,201.8l-0.68-0.48C260.15,201.42,260.38,201.59,260.56,201.8
			z M251.33,214c-1.59,5.03-3.68,9.14-6.26,12.32c-2.58,3.18-5.26,4.77-8.05,4.77c-1.72,0-3.12-1.24-4.2-3.71
			c-1.08-2.47-1.62-5.85-1.62-10.13c0-5.25,0.79-10.4,2.38-15.43c1.59-5.03,3.68-9.14,6.26-12.32c2.58-3.18,5.26-4.77,8.05-4.77
			c1.72,0,3.12,1.24,4.2,3.71c1.08,2.47,1.62,5.85,1.62,10.13C253.71,203.82,252.92,208.96,251.33,214z"/>
	</g>
</g>
</svg>
