<svg width="360" height="360" viewBox="0 0 360 360" fill="none" xmlns="http://www.w3.org/2000/svg">
<rect width="360" height="360" fill="#171717"/>
<g clip-path="url(#clip0_703_50)">
<path d="M89.5843 214.067C89.5843 216.309 90.8325 217.013 93.2445 216.373L95.8468 215.668L96.947 222.159C95.3179 223.461 91.3403 224.998 89.2457 225.554C83.5967 227.091 80 224.828 80 219.106V181.188L89.5843 178.604V214.067Z" fill="#FAFFFD"/>
<path d="M129.782 206.103L130.692 211.911C126.905 214.772 121.235 216.907 116.665 218.145C104.457 221.454 99.9082 217.675 99.9082 205.698C99.9082 192.866 104.605 187.251 116.284 184.091C127.243 181.124 131.475 183.856 131.56 191.286C131.56 197.222 128.746 201.129 121.764 203.008L110.148 206.146C110.804 210.907 112.899 211.398 117.786 210.075C120.706 209.285 125.403 207.747 129.782 206.103ZM109.937 200.339L119.077 197.862C121.679 197.158 122.081 195.535 122.081 193.699C122.081 190.667 120.769 189.963 116.601 191.094C111.777 192.354 110.212 194.147 109.937 200.339Z" fill="#FAFFFD"/>
<path d="M159.128 203.563C158.663 205.079 157.499 206.317 155.997 206.723L147.64 208.986C146.137 209.391 144.974 208.794 144.508 207.534L133.93 180.248L144.17 177.473L149.967 196.24C150.496 198.012 150.94 199.869 151.342 201.663L152.188 201.428C152.717 199.378 153.162 197.286 153.691 195.236L159.488 173.331L169.664 170.577L159.128 203.563Z" fill="#FAFFFD"/>
<path d="M202.12 186.547L203.03 192.354C199.243 195.215 193.573 197.35 189.003 198.588C176.795 201.897 172.246 198.118 172.246 186.141C172.246 173.309 176.943 167.694 188.622 164.534C199.581 161.567 203.813 164.3 203.897 171.729C203.897 177.644 201.083 181.572 194.102 183.451L182.486 186.589C183.142 191.35 185.237 191.841 190.124 190.518C193.044 189.728 197.741 188.191 202.12 186.547ZM182.296 180.782L191.436 178.305C194.038 177.601 194.44 175.978 194.44 174.142C194.44 171.11 193.128 170.406 188.96 171.537C184.115 172.776 182.55 174.59 182.296 180.782Z" fill="#FAFFFD"/>
<path d="M219.809 178.86C219.809 181.102 221.057 181.807 223.469 181.166L226.071 180.462L227.171 186.952C225.542 188.255 221.565 189.792 219.47 190.347C213.8 191.884 210.203 189.621 210.203 183.899V145.981L219.787 143.398V178.86H219.809Z" fill="#FAFFFD"/>
<path d="M268.914 140.665C266.354 141.348 259.055 147.903 257.193 150.038V133L247.63 140.43L247.588 158.023C244.202 160.777 241.918 162.25 239.569 162.89C236.967 163.595 236.057 162.848 236.12 160.008V138.701L226.473 141.305V165.602C226.473 171.601 229.54 173.8 235.549 172.178C239.781 171.025 243.631 167.331 247.651 163.723L247.588 170.299L257.214 161.182V154.948C261.213 151.34 263.858 149.696 265.085 149.354C268.682 148.394 270.099 149.909 270.099 157.745C270.099 165.837 268.597 167.694 264.492 168.804C261.763 169.552 259.732 169.424 257.193 169.466V169.488L252.665 173.971C252.052 174.612 251.438 175.21 250.846 175.786C249.767 176.96 248.688 178.028 247.609 178.967V192.29L257.193 182.106L257.003 174.932C260.007 176.362 263.858 176.234 267.772 175.188C275.854 173.01 280.043 167.993 280.043 155.076C280.001 144.059 276.869 138.508 268.914 140.665Z" fill="#FAFFFD"/>
</g>
<defs>
<clipPath id="clip0_703_50">
<rect width="200" height="93.0233" fill="white" transform="translate(80 133)"/>
</clipPath>
</defs>
</svg>
