<?xml version="1.0" encoding="utf-8"?>
<!-- Generator: Adobe Illustrator 25.3.0, SVG Export Plug-In . SVG Version: 6.00 Build 0)  -->
<svg version="1.1" id="Layer_1" xmlns="http://www.w3.org/2000/svg" xmlns:xlink="http://www.w3.org/1999/xlink" x="0px" y="0px"
	 viewBox="0 0 193 75" style="enable-background:new 0 0 193 75;" xml:space="preserve">
<style type="text/css">
	.st0{fill:#353535;stroke:#353535;stroke-miterlimit:10;}
	.st1{fill:#353535;}
</style>
<g>
	<path class="st0" d="M3.9,42.7C1.3,25,12.3,7.7,30,3c17.7-4.7,35.9,4.7,42.5,21.4l0.8-0.2C66.6,7,47.9-2.7,29.8,2.1S0.3,24.8,3,43
		L3.9,42.7z"/>
	<path class="st0" d="M74.6,32.3c2.6,17.7-8.4,35-26.1,39.8C30.8,76.8,12.6,67.3,6,50.6l-0.8,0.2c6.7,17.1,25.4,26.9,43.6,22
		S78.2,50.2,75.5,32L74.6,32.3z"/>
</g>
<path class="st1" d="M69.2,29.5C64.7,13,47.8,3.2,31.2,7.6C14.7,12,4.9,29,9.3,45.5s21.4,26.3,37.9,21.9C63.8,63,73.6,46,69.2,29.5z
	 M45.2,59.7c-9.4,2.5-19.1-1.2-24.5-8.6c0,0,0,0.1,0,0.1s-2.4-2.8-3.7-7.6c-1.3-4.8-0.5-8.9-0.5-8.9s0,0,0,0
	c1.1-9,7.6-16.8,16.9-19.3c6.8-1.8,13.7-0.4,19.1,3.3l-1.3,1.3c0,0,0,0,0,0l-4.6,4.8c-3.2-1.8-7.2-2.5-11-1.4
	c-6.4,1.7-10.6,7.4-10.8,13.7l13.5-3.6l2.1,8l-13.5,3.7c0,0,0,0,0,0c3.3,5.4,9.9,8.3,16.3,6.6c3.9-1,7-3.6,8.9-6.8l6.5,1.8
	c0,0,0,0,0,0l1.7,0.5C57.4,53.1,52.1,57.9,45.2,59.7z"/>
<g>
	<path class="st1" d="M101.3,25.6v3.5H86.5V10h14.4v3.5h-10v4.1h8.9v3.4h-8.9v4.4H101.3z"/>
	<path class="st1" d="M106.8,10h4.4v15.5h9.6v3.6h-14V10z"/>
	<path class="st1" d="M142.7,29.1l0-11.4l-5.6,9.4h-2l-5.6-9.2v11.2h-4.1V10h3.7l7.1,11.9l7-11.9h3.6l0.1,19.1H142.7z"/>
	<path class="st1" d="M168.2,25.6v3.5h-14.8V10h14.4v3.5h-10v4.1h8.9v3.4h-8.9v4.4H168.2z"/>
	<path class="st1" d="M185.9,29.1l-3.7-5.3H182h-3.8v5.3h-4.4V10h8.3c1.7,0,3.2,0.3,4.4,0.8c1.2,0.6,2.2,1.4,2.9,2.4
		c0.7,1,1,2.3,1,3.7s-0.3,2.6-1,3.7c-0.7,1-1.6,1.8-2.9,2.4l4.3,6.1H185.9z M184.8,14.5c-0.7-0.6-1.7-0.9-3-0.9h-3.6v6.6h3.6
		c1.3,0,2.3-0.3,3-0.9c0.7-0.6,1-1.4,1-2.5C185.8,15.9,185.5,15.1,184.8,14.5z"/>
	<path class="st1" d="M90.4,60.9c-1.6-0.9-2.8-2-3.7-3.5c-0.9-1.5-1.3-3.2-1.3-5.1s0.4-3.6,1.3-5.1c0.9-1.5,2.1-2.7,3.7-3.5
		c1.6-0.9,3.4-1.3,5.4-1.3s3.8,0.4,5.3,1.3c1.6,0.9,2.8,2,3.7,3.5c0.9,1.5,1.4,3.2,1.4,5.1s-0.5,3.6-1.4,5.1
		c-0.9,1.5-2.2,2.7-3.7,3.5c-1.6,0.9-3.4,1.3-5.3,1.3S92,61.7,90.4,60.9z M98.8,57.6c0.9-0.5,1.6-1.2,2.1-2.2s0.8-2,0.8-3.2
		s-0.3-2.2-0.8-3.2s-1.2-1.6-2.1-2.2c-0.9-0.5-1.9-0.8-3.1-0.8c-1.1,0-2.1,0.3-3.1,0.8c-0.9,0.5-1.6,1.2-2.1,2.2
		c-0.5,0.9-0.8,2-0.8,3.2s0.3,2.2,0.8,3.2c0.5,0.9,1.2,1.6,2.1,2.2c0.9,0.5,1.9,0.8,3.1,0.8C96.9,58.4,97.9,58.1,98.8,57.6z"/>
	<path class="st1" d="M110,61.5c-1.4-0.4-2.5-0.9-3.4-1.6l1.5-3.3c0.8,0.6,1.8,1.1,2.9,1.4c1.1,0.4,2.3,0.5,3.4,0.5
		c1.3,0,2.2-0.2,2.8-0.6c0.6-0.4,0.9-0.9,0.9-1.5c0-0.5-0.2-0.8-0.5-1.1c-0.4-0.3-0.8-0.5-1.4-0.7c-0.6-0.2-1.3-0.4-2.2-0.6
		c-1.5-0.3-2.6-0.7-3.6-1c-0.9-0.3-1.7-0.9-2.4-1.7c-0.7-0.8-1-1.8-1-3.1c0-1.1,0.3-2.1,0.9-3s1.5-1.6,2.7-2.1
		c1.2-0.5,2.7-0.8,4.4-0.8c1.2,0,2.4,0.1,3.6,0.4c1.2,0.3,2.2,0.7,3.1,1.3l-1.4,3.4c-1.8-1-3.5-1.5-5.3-1.5c-1.2,0-2.1,0.2-2.7,0.6
		c-0.6,0.4-0.9,0.9-0.9,1.6s0.3,1.1,1,1.5c0.7,0.3,1.7,0.6,3.1,0.9c1.5,0.3,2.6,0.7,3.6,1c0.9,0.3,1.7,0.9,2.4,1.6s1,1.8,1,3
		c0,1.1-0.3,2.1-0.9,3c-0.6,0.9-1.5,1.6-2.7,2.1c-1.2,0.5-2.7,0.8-4.4,0.8C112.9,62.1,111.4,61.9,110,61.5z"/>
	<path class="st1" d="M128,60.9c-1.6-0.9-2.8-2-3.7-3.5c-0.9-1.5-1.3-3.2-1.3-5.1s0.5-3.6,1.3-5.1c0.9-1.5,2.1-2.7,3.7-3.5
		c1.6-0.9,3.4-1.3,5.4-1.3s3.8,0.4,5.3,1.3c1.6,0.9,2.8,2,3.7,3.5c0.9,1.5,1.4,3.2,1.4,5.1s-0.5,3.6-1.4,5.1
		c-0.9,1.5-2.2,2.7-3.7,3.5c-1.6,0.9-3.4,1.3-5.3,1.3S129.6,61.7,128,60.9z M136.4,57.6c0.9-0.5,1.6-1.2,2.1-2.2
		c0.5-0.9,0.8-2,0.8-3.2s-0.3-2.2-0.8-3.2c-0.5-0.9-1.2-1.6-2.1-2.2c-0.9-0.5-1.9-0.8-3.1-0.8c-1.1,0-2.1,0.3-3.1,0.8
		c-0.9,0.5-1.6,1.2-2.1,2.2s-0.8,2-0.8,3.2s0.3,2.2,0.8,3.2s1.2,1.6,2.1,2.2c0.9,0.5,1.9,0.8,3.1,0.8
		C134.5,58.4,135.5,58.1,136.4,57.6z"/>
	<path class="st1" d="M157.9,61.8l-3.7-5.3h-0.2h-3.8v5.3h-4.4V42.7h8.3c1.7,0,3.2,0.3,4.4,0.8c1.2,0.6,2.2,1.4,2.9,2.4
		c0.7,1,1,2.3,1,3.7s-0.3,2.6-1,3.7c-0.7,1-1.6,1.8-2.9,2.4l4.3,6.1H157.9z M156.8,47.2c-0.7-0.6-1.7-0.9-3-0.9h-3.6V53h3.6
		c1.3,0,2.3-0.3,3-0.9c0.7-0.6,1-1.4,1-2.5C157.9,48.6,157.5,47.8,156.8,47.2z"/>
	<path class="st1" d="M164.5,42.7h4.4v19.1h-4.4V42.7z"/>
	<path class="st1" d="M175.9,60.9c-1.6-0.9-2.8-2-3.7-3.5c-0.9-1.5-1.3-3.2-1.3-5.1s0.5-3.6,1.3-5.1c0.9-1.5,2.1-2.7,3.7-3.5
		c1.6-0.9,3.4-1.3,5.4-1.3s3.8,0.4,5.3,1.3c1.6,0.9,2.8,2,3.7,3.5c0.9,1.5,1.4,3.2,1.4,5.1s-0.5,3.6-1.4,5.1
		c-0.9,1.5-2.2,2.7-3.7,3.5c-1.6,0.9-3.4,1.3-5.3,1.3S177.5,61.7,175.9,60.9z M184.3,57.6c0.9-0.5,1.6-1.2,2.1-2.2
		c0.5-0.9,0.8-2,0.8-3.2s-0.3-2.2-0.8-3.2c-0.5-0.9-1.2-1.6-2.1-2.2c-0.9-0.5-1.9-0.8-3.1-0.8c-1.1,0-2.1,0.3-3.1,0.8
		c-0.9,0.5-1.6,1.2-2.1,2.2s-0.8,2-0.8,3.2s0.3,2.2,0.8,3.2s1.2,1.6,2.1,2.2c0.9,0.5,1.9,0.8,3.1,0.8
		C182.4,58.4,183.4,58.1,184.3,57.6z"/>
</g>
</svg>
