<svg width="360" height="360" viewBox="0 0 360 360" fill="none" xmlns="http://www.w3.org/2000/svg">
<rect width="360" height="360" fill="#171717"/>
<path d="M85.4876 162.406H95.8795L104.539 197.6H96.8547L95.567 191.786L85.7963 191.831L84.5086 197.6H76.8276L85.4876 162.406ZM90.6835 169.243L87.2647 184.998H94.1023L90.6835 169.243Z" fill="white"/>
<path d="M114.886 197.604H107.646V162.406H114.886C120.865 162.406 125.5 164.449 128.787 168.532C131.393 171.756 132.695 175.602 132.695 180.072C132.695 184.836 131.246 188.847 128.343 192.098C125.026 195.767 120.538 197.604 114.886 197.604ZM114.886 169.198V190.812C118.824 190.812 121.709 189.288 123.546 186.24C124.642 184.434 125.188 182.364 125.188 180.027C125.188 176.535 124.077 173.755 121.859 171.685C120.022 170.026 117.699 169.198 114.886 169.198Z" fill="white"/>
<path d="M135.76 162.406H142.997V186.906C142.997 188.919 143.886 190.322 145.663 191.124C146.344 191.421 147.071 191.568 147.839 191.568C149.643 191.568 150.991 190.887 151.879 189.525C152.354 188.757 152.591 187.884 152.591 186.906V162.406H159.827V186.684C159.827 190.857 158.231 194.021 155.031 196.181C152.93 197.604 150.516 198.311 147.794 198.311C144.27 198.311 141.355 197.201 139.044 194.981C136.852 192.821 135.757 190.055 135.757 186.68V162.406H135.76Z" fill="white"/>
<path d="M171.865 190.812H185.988V197.604H164.628V162.406H171.865V190.812Z" fill="white"/>
<path d="M184.565 169.198V162.406H205.883V169.198H198.82V197.649H191.583V169.198H184.565Z" fill="white"/>
<path d="M215.24 160.125V154.483H241.832V152.086H212.731V160.125V172.873H215.24V160.125Z" fill="white"/>
<path d="M212.731 199.645V207.914H241.832V205.365H215.24V199.645V186.533H212.731V199.645Z" fill="white"/>
<path d="M284 160.125V152.086H256.086V154.483H281.535V160.125V172.873H284V160.125Z" fill="white"/>
<path d="M281.535 199.645V205.365H256.086V207.914H284V199.645V186.533H281.535V199.645Z" fill="white"/>
<path d="M227.202 197.796H224.201V162.21H227.202V197.796Z" fill="white"/>
<path d="M247.3 197.796L235.884 168.938V197.796H232.838V162.21H236.841L248.302 191.207V162.21H251.303V197.796H247.3Z" fill="white"/>
<path d="M270.309 197.796L258.897 168.938V197.796H255.851V162.21H259.853L271.315 191.207V162.21H274.315V197.796H270.309Z" fill="white"/>
</svg>
