<?xml version="1.0" encoding="utf-8"?>
<!-- Generator: Adobe Illustrator 25.3.0, SVG Export Plug-In . SVG Version: 6.00 Build 0)  -->
<svg version="1.1" id="Layer_1" xmlns="http://www.w3.org/2000/svg" xmlns:xlink="http://www.w3.org/1999/xlink" x="0px" y="0px"
	 viewBox="0 0 360 360" style="enable-background:new 0 0 360 360;" xml:space="preserve">
<style type="text/css">
	.st0{fill:#171717;stroke:#000000;stroke-miterlimit:10;}
	.st1{clip-path:url(#SVGID_2_);}
	.st2{clip-path:url(#SVGID_4_);fill:#FFFFFF;}
</style>
<rect x="-0.5" y="-0.5" class="st0" width="360" height="360"/>
<g>
	<g>
		<defs>
			<rect id="SVGID_1_" x="75" y="143.57" width="210" height="72.86"/>
		</defs>
		<clipPath id="SVGID_2_">
			<use xlink:href="#SVGID_1_"  style="overflow:visible;"/>
		</clipPath>
		<g class="st1">
			<defs>
				<rect id="SVGID_3_" x="75" y="143.57" width="210" height="72.86"/>
			</defs>
			<clipPath id="SVGID_4_">
				<use xlink:href="#SVGID_3_"  style="overflow:visible;"/>
			</clipPath>
			<path class="st2" d="M268.76,162.4v-8.85h3.27c1.2,0,2.09,0.21,2.66,0.62c0.57,0.42,0.86,1.07,0.86,1.95
				c0,0.49-0.12,0.91-0.37,1.25c-0.26,0.35-0.65,0.64-1.17,0.88c0.22,0.08,0.41,0.21,0.59,0.4c0.17,0.19,0.33,0.43,0.46,0.71
				l1.41,3.03h-2.5l-1.12-2.55c-0.18-0.4-0.39-0.68-0.62-0.84c-0.24-0.15-0.56-0.23-0.99-0.23c-0.03,0-0.07,0-0.13,0
				c-0.05,0-0.09,0.01-0.12,0.01v3.6H268.76z M272.04,157.19c0.41,0,0.72-0.09,0.92-0.26c0.2-0.17,0.31-0.43,0.31-0.78
				c0-0.33-0.11-0.58-0.32-0.76c-0.21-0.17-0.51-0.26-0.91-0.26h-1.06v2.07H272.04z"/>
			<path class="st2" d="M272.22,165.51c-4.12,0-7.47-3.34-7.47-7.46c0-4.12,3.35-7.47,7.47-7.47s7.46,3.35,7.46,7.47
				C279.68,162.16,276.34,165.51,272.22,165.51 M272.22,152.18c-3.23,0-5.87,2.63-5.87,5.86c0,3.24,2.63,5.86,5.87,5.86
				s5.86-2.63,5.86-5.86C278.08,154.81,275.45,152.18,272.22,152.18"/>
			<path class="st2" d="M104.5,162.25c-0.79-0.99-1.85-1.72-3.18-2.19c-1.33-0.47-2.6-0.71-3.79-0.71c-0.7,0-1.42,0.08-2.16,0.25
				c-0.74,0.16-1.44,0.43-2.1,0.77c-0.66,0.35-1.19,0.81-1.61,1.39c-0.41,0.58-0.61,1.28-0.61,2.1c0,1.31,0.49,2.32,1.48,3.02
				c0.98,0.71,2.23,1.3,3.73,1.79c1.5,0.49,3.12,0.99,4.84,1.48c1.73,0.5,3.34,1.2,4.85,2.1c1.5,0.91,2.74,2.12,3.73,3.64
				c0.99,1.52,1.48,3.56,1.48,6.11c0,2.42-0.46,4.55-1.35,6.35c-0.91,1.82-2.13,3.31-3.67,4.51c-1.54,1.19-3.33,2.08-5.37,2.65
				c-2.04,0.58-4.19,0.86-6.45,0.86c-2.84,0-5.47-0.44-7.9-1.3c-2.43-0.86-4.69-2.26-6.79-4.19l6.84-7.53
				c0.99,1.32,2.23,2.34,3.74,3.06c1.5,0.72,3.05,1.08,4.65,1.08c0.79,0,1.57-0.1,2.38-0.28c0.8-0.18,1.52-0.46,2.16-0.83
				c0.63-0.37,1.15-0.84,1.54-1.42c0.39-0.57,0.59-1.25,0.59-2.04c0-1.32-0.51-2.36-1.51-3.12c-1.01-0.76-2.28-1.41-3.8-1.94
				c-1.52-0.53-3.17-1.07-4.93-1.6c-1.77-0.54-3.42-1.26-4.93-2.16c-1.52-0.91-2.79-2.1-3.79-3.58c-1.01-1.48-1.51-3.43-1.51-5.86
				c0-2.34,0.46-4.4,1.39-6.17c0.93-1.77,2.16-3.25,3.7-4.44c1.54-1.19,3.32-2.09,5.34-2.68c2.02-0.59,4.09-0.89,6.23-0.89
				c2.47,0,4.85,0.35,7.16,1.05c2.31,0.7,4.38,1.88,6.23,3.52L104.5,162.25z"/>
			<path class="st2" d="M145.54,190.08c-1.49,1.89-3.35,3.35-5.61,4.38c-2.27,1.03-4.61,1.54-7.04,1.54c-2.31,0-4.47-0.37-6.51-1.12
				c-2.04-0.74-3.81-1.8-5.31-3.18c-1.5-1.38-2.68-3.03-3.55-4.97c-0.86-1.93-1.29-4.1-1.29-6.48c0-2.39,0.43-4.55,1.29-6.48
				c0.86-1.93,2.05-3.59,3.55-4.97c1.5-1.38,3.27-2.44,5.31-3.18c2.04-0.74,4.2-1.12,6.51-1.12c2.14,0,4.08,0.37,5.83,1.12
				c1.75,0.74,3.23,1.8,4.44,3.18c1.21,1.38,2.15,3.03,2.81,4.97c0.65,1.93,0.99,4.09,0.99,6.48v2.9h-21.47
				c0.37,1.77,1.17,3.18,2.41,4.22c1.23,1.05,2.75,1.58,4.56,1.58c1.52,0,2.81-0.34,3.86-1.02c1.05-0.68,1.96-1.55,2.74-2.62
				L145.54,190.08z M137.7,176.87c0.04-1.56-0.48-2.9-1.54-4.01c-1.07-1.11-2.45-1.67-4.14-1.67c-1.03,0-1.93,0.16-2.72,0.5
				c-0.78,0.33-1.45,0.75-2,1.26c-0.56,0.52-0.99,1.12-1.3,1.79c-0.31,0.68-0.48,1.39-0.52,2.13H137.7z"/>
			<path class="st2" d="M152.57,165.28h9.25v4.81h0.12c0.99-1.85,2.16-3.24,3.52-4.17c1.36-0.92,3.07-1.39,5.12-1.39
				c0.53,0,1.07,0.02,1.61,0.06c0.53,0.05,1.02,0.12,1.48,0.25v8.45c-0.66-0.2-1.31-0.36-1.95-0.46c-0.64-0.1-1.3-0.15-2-0.15
				c-1.77,0-3.17,0.25-4.19,0.74c-1.03,0.49-1.83,1.18-2.38,2.07c-0.56,0.88-0.92,1.94-1.09,3.18c-0.16,1.24-0.25,2.59-0.25,4.07
				v12.53h-9.25V165.28z"/>
			<path class="st2" d="M208.04,192.73c0,5.68-1.43,9.99-4.29,12.93c-2.86,2.94-7.21,4.41-13.05,4.41c-2.67,0-5.31-0.3-7.9-0.9
				c-2.59-0.6-4.98-1.76-7.16-3.49l5.12-7.65c1.44,1.19,2.95,2.14,4.54,2.84c1.58,0.7,3.32,1.05,5.21,1.05
				c2.84,0,4.93-0.69,6.27-2.07c1.34-1.38,2-3.13,2-5.27v-2.9h-0.12c-1.07,1.44-2.4,2.46-3.98,3.05c-1.59,0.6-3.07,0.89-4.47,0.89
				c-2.22,0-4.23-0.38-6.05-1.14c-1.81-0.76-3.36-1.83-4.66-3.21c-1.29-1.38-2.29-3.02-2.99-4.91c-0.7-1.89-1.05-3.97-1.05-6.23
				c0-1.97,0.32-3.91,0.96-5.8c0.64-1.89,1.54-3.56,2.72-5c1.17-1.44,2.6-2.6,4.29-3.48c1.69-0.88,3.6-1.33,5.74-1.33
				c1.32,0,2.53,0.15,3.61,0.43c1.09,0.29,2.07,0.66,2.93,1.11c0.86,0.46,1.6,0.96,2.21,1.51c0.62,0.56,1.11,1.1,1.49,1.64h0.12
				v-3.95h8.51V192.73z M184.72,180.09c0,0.99,0.18,1.92,0.55,2.81c0.37,0.88,0.9,1.66,1.57,2.34c0.68,0.68,1.46,1.23,2.35,1.64
				c0.89,0.41,1.86,0.62,2.93,0.62c1.03,0,1.99-0.21,2.91-0.62c0.9-0.41,1.69-0.96,2.37-1.64c0.68-0.68,1.21-1.46,1.57-2.34
				c0.37-0.89,0.55-1.82,0.55-2.81c0-0.99-0.18-1.92-0.55-2.81c-0.37-0.88-0.89-1.67-1.57-2.35c-0.68-0.68-1.47-1.22-2.37-1.63
				c-0.91-0.41-1.88-0.62-2.91-0.62c-1.07,0-2.04,0.2-2.93,0.62c-0.89,0.41-1.67,0.95-2.35,1.63c-0.68,0.68-1.2,1.46-1.57,2.35
				C184.9,178.16,184.72,179.09,184.72,180.09"/>
			<path class="st2" d="M214.83,155.84c0-1.48,0.53-2.75,1.57-3.79c1.05-1.05,2.32-1.57,3.79-1.57c1.48,0,2.75,0.53,3.8,1.57
				c1.05,1.05,1.57,2.31,1.57,3.79c0,1.48-0.52,2.75-1.57,3.79c-1.05,1.05-2.31,1.58-3.8,1.58c-1.48,0-2.75-0.53-3.79-1.58
				C215.35,158.58,214.83,157.32,214.83,155.84 M215.57,165.28h9.26v29.99h-9.26V165.28z"/>
			<path class="st2" d="M230.38,180.27c0-2.39,0.43-4.55,1.29-6.48c0.86-1.93,2.05-3.59,3.55-4.97c1.5-1.38,3.27-2.44,5.31-3.17
				c2.04-0.74,4.2-1.12,6.51-1.12c2.3,0,4.47,0.37,6.51,1.12c2.03,0.74,3.8,1.79,5.31,3.17c1.49,1.38,2.68,3.03,3.54,4.97
				c0.86,1.93,1.3,4.09,1.3,6.48c0,2.38-0.43,4.55-1.3,6.48c-0.86,1.93-2.05,3.59-3.54,4.97c-1.51,1.38-3.27,2.44-5.31,3.18
				c-2.04,0.74-4.21,1.12-6.51,1.12c-2.31,0-4.48-0.37-6.51-1.12c-2.04-0.74-3.81-1.8-5.31-3.18c-1.5-1.38-2.68-3.03-3.55-4.97
				C230.81,184.82,230.38,182.65,230.38,180.27 M239.63,180.27c0,2.26,0.64,4.1,1.94,5.49c1.29,1.4,3.11,2.1,5.46,2.1
				c2.34,0,4.16-0.7,5.46-2.1c1.3-1.4,1.95-3.23,1.95-5.49c0-2.27-0.65-4.09-1.95-5.49c-1.29-1.4-3.11-2.1-5.46-2.1
				c-2.35,0-4.17,0.7-5.46,2.1C240.28,176.18,239.63,178.01,239.63,180.27"/>
		</g>
	</g>
</g>
</svg>
